<?xml version="1.0" encoding="utf-8"?>
<svg viewBox="0 0 420.019 600" xmlns="http://www.w3.org/2000/svg">
  <g transform="matrix(1.050034, 0, 0, 1.050034, 0.000001, 0)">
    <path d="M 199.98 0 C 89.46 0 0 89.415 0 199.98 C 0 349.965 199.98 571.41 199.98 571.41 C 199.98 571.41 400.005 349.965 400.005 199.98 C 400.005 89.415 310.545 0 199.98 0 Z M 199.98 271.395 C 160.56 271.395 128.565 239.4 128.565 199.98 C 128.565 160.56 160.56 128.565 199.98 128.565 C 239.4 128.565 271.395 160.56 271.395 199.98 C 271.395 239.4 239.4 271.395 199.98 271.395 Z"/>
    <circle style="fill: rgb(216, 216, 216);" cx="199.626" cy="198.048" r="154.392"/>
    <path d="M 269.716 119.621 C 267.685 113.628 261.996 109.361 255.292 109.361 L 143.557 109.361 C 136.853 109.361 131.266 113.628 129.133 119.621 L 108.005 180.466 L 108.005 261.727 C 108.005 267.314 112.576 271.885 118.163 271.885 L 128.321 271.885 C 133.907 271.885 138.478 267.314 138.478 261.727 L 138.478 251.57 L 260.371 251.57 L 260.371 261.727 C 260.371 267.314 264.942 271.885 270.529 271.885 L 280.686 271.885 C 286.273 271.885 290.844 267.314 290.844 261.727 L 290.844 180.466 L 269.716 119.621 Z M 143.557 221.096 C 135.126 221.096 128.321 214.291 128.321 205.86 C 128.321 197.429 135.126 190.623 143.557 190.623 C 151.988 190.623 158.794 197.429 158.794 205.86 C 158.794 214.291 151.988 221.096 143.557 221.096 Z M 255.292 221.096 C 246.861 221.096 240.056 214.291 240.056 205.86 C 240.056 197.429 246.861 190.623 255.292 190.623 C 263.723 190.623 270.529 197.429 270.529 205.86 C 270.529 214.291 263.723 221.096 255.292 221.096 Z M 128.321 170.308 L 143.557 124.598 L 255.292 124.598 L 270.529 170.308 L 128.321 170.308 Z"/>
  </g>
</svg>
