<?xml version="1.0" encoding="utf-8"?>
<svg viewBox="0 0 420.019 600" xmlns="http://www.w3.org/2000/svg">
  <g transform="matrix(1.050034, 0, 0, 1.050034, 0.000001, 0)">
    <path d="M 199.98 0 C 89.46 0 0 89.415 0 199.98 C 0 349.965 199.98 571.41 199.98 571.41 C 199.98 571.41 400.005 349.965 400.005 199.98 C 400.005 89.415 310.545 0 199.98 0 Z M 199.98 271.395 C 160.56 271.395 128.565 239.4 128.565 199.98 C 128.565 160.56 160.56 128.565 199.98 128.565 C 239.4 128.565 271.395 160.56 271.395 199.98 C 271.395 239.4 239.4 271.395 199.98 271.395 Z"/>
    <circle style="fill: rgb(216, 216, 216);" cx="199.626" cy="198.048" r="154.392"/>
  </g>
</svg>
