<?xml version="1.0" encoding="utf-8"?>
<svg viewBox="0 0 420.019 600" xmlns="http://www.w3.org/2000/svg">
  <g transform="matrix(1.050034, 0, 0, 1.050034, -735.013306, 0)">
    <path d="M 899.97 0 C 789.45 0 699.99 89.415 699.99 199.98 C 699.99 349.965 899.97 571.41 899.97 571.41 C 899.97 571.41 1099.995 349.965 1099.995 199.98 C 1099.995 89.415 1010.535 0 899.97 0 Z M 899.97 271.395 C 860.55 271.395 828.555 239.4 828.555 199.98 C 828.555 160.56 860.55 128.565 899.97 128.565 C 939.39 128.565 971.385 160.56 971.385 199.98 C 971.385 239.4 939.39 271.395 899.97 271.395 Z"/>
    <circle style="fill: rgb(216, 216, 216);" cx="899.616" cy="198.048" r="154.392"/>
    <path d="M 918.091 115.885 C 930.536 115.885 940.715 105.706 940.715 93.261 C 940.715 80.816 930.536 70.639 918.091 70.639 C 905.611 70.639 895.433 80.816 895.433 93.261 C 895.433 105.706 905.611 115.885 918.091 115.885 Z M 876.226 154.368 L 844.539 313.916 L 868.278 313.916 L 888.671 223.388 L 912.409 246.011 L 912.409 313.916 L 935.033 313.916 L 935.033 229.035 L 911.294 206.412 L 918.091 172.46 C 932.802 189.435 955.426 200.764 980.315 200.764 L 980.315 178.142 C 958.806 178.142 940.715 166.812 931.652 150.987 L 920.322 132.859 C 915.826 126.097 909.029 121.566 901.115 121.566 C 897.7 121.566 895.433 122.681 892.052 122.681 L 833.212 147.57 L 833.212 200.764 L 855.835 200.764 L 855.835 162.281 L 876.226 154.368"/>
  </g>
</svg>
